<svg width="262" height="47" viewBox="0 0 262 47" fill="none" xmlns="http://www.w3.org/2000/svg">
<path d="M62.052 12.4H63.384V25H62.052V12.4ZM79.8136 12.4V25H78.7156L70.6156 14.776V25H69.2836V12.4H70.3816L78.4996 22.624V12.4H79.8136ZM88.1742 13.552H83.7462V12.4H93.9342V13.552H89.5062V25H88.1742V13.552ZM106.772 23.848V25H97.8622V12.4H106.502V13.552H99.1942V18.034H105.71V19.168H99.1942V23.848H106.772ZM120.307 25L117.427 20.95C117.103 20.986 116.767 21.004 116.419 21.004H113.035V25H111.703V12.4H116.419C118.027 12.4 119.287 12.784 120.199 13.552C121.111 14.32 121.567 15.376 121.567 16.72C121.567 17.704 121.315 18.538 120.811 19.222C120.319 19.894 119.611 20.38 118.687 20.68L121.765 25H120.307ZM116.383 19.87C117.631 19.87 118.585 19.594 119.245 19.042C119.905 18.49 120.235 17.716 120.235 16.72C120.235 15.7 119.905 14.92 119.245 14.38C118.585 13.828 117.631 13.552 116.383 13.552H113.035V19.87H116.383ZM126.511 12.4H127.843V25H126.511V12.4ZM139.251 25.108C138.003 25.108 136.869 24.832 135.849 24.28C134.841 23.716 134.049 22.948 133.473 21.976C132.909 21.004 132.627 19.912 132.627 18.7C132.627 17.488 132.909 16.396 133.473 15.424C134.049 14.452 134.841 13.69 135.849 13.138C136.869 12.574 138.003 12.292 139.251 12.292C140.499 12.292 141.621 12.568 142.617 13.12C143.625 13.672 144.417 14.44 144.993 15.424C145.569 16.396 145.857 17.488 145.857 18.7C145.857 19.912 145.569 21.01 144.993 21.994C144.417 22.966 143.625 23.728 142.617 24.28C141.621 24.832 140.499 25.108 139.251 25.108ZM139.251 23.92C140.247 23.92 141.147 23.698 141.951 23.254C142.755 22.798 143.385 22.174 143.841 21.382C144.297 20.578 144.525 19.684 144.525 18.7C144.525 17.716 144.297 16.828 143.841 16.036C143.385 15.232 142.755 14.608 141.951 14.164C141.147 13.708 140.247 13.48 139.251 13.48C138.255 13.48 137.349 13.708 136.533 14.164C135.729 14.608 135.093 15.232 134.625 16.036C134.169 16.828 133.941 17.716 133.941 18.7C133.941 19.684 134.169 20.578 134.625 21.382C135.093 22.174 135.729 22.798 136.533 23.254C137.349 23.698 138.255 23.92 139.251 23.92ZM159.246 25L156.366 20.95C156.042 20.986 155.706 21.004 155.358 21.004H151.974V25H150.642V12.4H155.358C156.966 12.4 158.226 12.784 159.138 13.552C160.05 14.32 160.506 15.376 160.506 16.72C160.506 17.704 160.254 18.538 159.75 19.222C159.258 19.894 158.55 20.38 157.626 20.68L160.704 25H159.246ZM155.322 19.87C156.57 19.87 157.524 19.594 158.184 19.042C158.844 18.49 159.174 17.716 159.174 16.72C159.174 15.7 158.844 14.92 158.184 14.38C157.524 13.828 156.57 13.552 155.322 13.552H151.974V19.87H155.322ZM171.961 12.4H173.293V23.848H180.349V25H171.961V12.4ZM189.623 25.108C188.375 25.108 187.241 24.832 186.221 24.28C185.213 23.716 184.421 22.948 183.845 21.976C183.281 21.004 182.999 19.912 182.999 18.7C182.999 17.488 183.281 16.396 183.845 15.424C184.421 14.452 185.213 13.69 186.221 13.138C187.241 12.574 188.375 12.292 189.623 12.292C190.871 12.292 191.993 12.568 192.989 13.12C193.997 13.672 194.789 14.44 195.365 15.424C195.941 16.396 196.229 17.488 196.229 18.7C196.229 19.912 195.941 21.01 195.365 21.994C194.789 22.966 193.997 23.728 192.989 24.28C191.993 24.832 190.871 25.108 189.623 25.108ZM189.623 23.92C190.619 23.92 191.519 23.698 192.323 23.254C193.127 22.798 193.757 22.174 194.213 21.382C194.669 20.578 194.897 19.684 194.897 18.7C194.897 17.716 194.669 16.828 194.213 16.036C193.757 15.232 193.127 14.608 192.323 14.164C191.519 13.708 190.619 13.48 189.623 13.48C188.627 13.48 187.721 13.708 186.905 14.164C186.101 14.608 185.465 15.232 184.997 16.036C184.541 16.828 184.312 17.716 184.312 18.7C184.312 19.684 184.541 20.578 184.997 21.382C185.465 22.174 186.101 22.798 186.905 23.254C187.721 23.698 188.627 23.92 189.623 23.92ZM206.09 25.108C204.458 25.108 203.186 24.64 202.274 23.704C201.362 22.768 200.906 21.406 200.906 19.618V12.4H202.238V19.564C202.238 21.028 202.568 22.12 203.228 22.84C203.888 23.56 204.842 23.92 206.09 23.92C207.35 23.92 208.31 23.56 208.97 22.84C209.63 22.12 209.96 21.028 209.96 19.564V12.4H211.256V19.618C211.256 21.406 210.8 22.768 209.888 23.704C208.988 24.64 207.722 25.108 206.09 25.108ZM227.6 12.4V25H226.502L218.402 14.776V25H217.07V12.4H218.168L226.286 22.624V12.4H227.6ZM242.387 18.7H243.665V23.506C243.077 24.022 242.381 24.418 241.577 24.694C240.773 24.97 239.927 25.108 239.039 25.108C237.779 25.108 236.645 24.832 235.637 24.28C234.629 23.728 233.837 22.966 233.261 21.994C232.685 21.01 232.397 19.912 232.397 18.7C232.397 17.488 232.685 16.396 233.261 15.424C233.837 14.44 234.629 13.672 235.637 13.12C236.645 12.568 237.785 12.292 239.057 12.292C240.017 12.292 240.899 12.448 241.703 12.76C242.507 13.06 243.185 13.51 243.737 14.11L242.909 14.956C241.913 13.972 240.647 13.48 239.111 13.48C238.091 13.48 237.167 13.708 236.339 14.164C235.523 14.608 234.881 15.232 234.413 16.036C233.945 16.828 233.711 17.716 233.711 18.7C233.711 19.684 233.945 20.572 234.413 21.364C234.881 22.156 235.523 22.78 236.339 23.236C237.155 23.692 238.073 23.92 239.093 23.92C240.389 23.92 241.487 23.596 242.387 22.948V18.7ZM258.144 23.848V25H249.234V12.4H257.874V13.552H250.566V18.034H257.082V19.168H250.566V23.848H258.144Z" fill="#9F7303"/>
<path d="M66.741 41.586V43.44H66.3V42H60.54L60.531 43.44H60.09L60.099 41.586H60.441C60.855 41.55 61.143 41.202 61.305 40.542C61.473 39.882 61.575 38.958 61.611 37.77L61.674 35.7H65.769V41.586H66.741ZM62.034 37.806C61.998 38.826 61.917 39.66 61.791 40.308C61.671 40.956 61.464 41.382 61.17 41.586H65.31V36.114H62.088L62.034 37.806ZM68.0472 37.302H68.4972V41.307L71.8452 37.302H72.2412V42H71.7912V37.995L68.4432 42H68.0472V37.302ZM76.1467 39.552C76.4947 39.618 76.7617 39.75 76.9477 39.948C77.1397 40.14 77.2357 40.377 77.2357 40.659C77.2357 40.935 77.1427 41.178 76.9567 41.388C76.7767 41.598 76.5307 41.76 76.2187 41.874C75.9067 41.988 75.5677 42.045 75.2017 42.045C74.8657 42.045 74.5357 41.994 74.2117 41.892C73.8937 41.784 73.6147 41.631 73.3747 41.433L73.5547 41.1C73.7647 41.28 74.0137 41.418 74.3017 41.514C74.5957 41.61 74.8927 41.658 75.1927 41.658C75.6367 41.658 76.0117 41.565 76.3177 41.379C76.6237 41.187 76.7767 40.935 76.7767 40.623C76.7767 40.347 76.6477 40.131 76.3897 39.975C76.1377 39.813 75.7957 39.732 75.3637 39.732H74.6077V39.39H75.3457C75.7237 39.39 76.0327 39.315 76.2727 39.165C76.5187 39.015 76.6417 38.814 76.6417 38.562C76.6417 38.268 76.5067 38.043 76.2367 37.887C75.9727 37.725 75.6337 37.644 75.2197 37.644C74.6917 37.644 74.1937 37.779 73.7257 38.049L73.5907 37.689C74.1187 37.395 74.6797 37.248 75.2737 37.248C75.7957 37.248 76.2307 37.362 76.5787 37.59C76.9267 37.812 77.1007 38.115 77.1007 38.499C77.1007 38.745 77.0137 38.961 76.8397 39.147C76.6657 39.333 76.4347 39.468 76.1467 39.552ZM80.362 37.266C80.944 37.266 81.391 37.416 81.703 37.716C82.015 38.01 82.171 38.445 82.171 39.021V42H81.739V41.163C81.589 41.439 81.37 41.655 81.082 41.811C80.794 41.961 80.449 42.036 80.047 42.036C79.525 42.036 79.111 41.913 78.805 41.667C78.505 41.421 78.355 41.097 78.355 40.695C78.355 40.305 78.493 39.99 78.769 39.75C79.051 39.504 79.498 39.381 80.11 39.381H81.721V39.003C81.721 38.565 81.601 38.232 81.361 38.004C81.127 37.776 80.782 37.662 80.326 37.662C80.014 37.662 79.714 37.716 79.426 37.824C79.144 37.932 78.904 38.076 78.706 38.256L78.481 37.932C78.715 37.722 78.997 37.56 79.327 37.446C79.657 37.326 80.002 37.266 80.362 37.266ZM80.11 41.667C80.5 41.667 80.83 41.577 81.1 41.397C81.376 41.217 81.583 40.956 81.721 40.614V39.732H80.119C79.657 39.732 79.321 39.816 79.111 39.984C78.907 40.152 78.805 40.383 78.805 40.677C78.805 40.983 78.919 41.226 79.147 41.406C79.375 41.58 79.696 41.667 80.11 41.667ZM83.9993 37.302H84.4493V41.307L87.7973 37.302H88.1933V42H87.7433V37.995L84.3953 42H83.9993V37.302ZM86.0783 36.582C85.7003 36.582 85.3943 36.486 85.1603 36.294C84.9263 36.096 84.8063 35.823 84.8003 35.475H85.1333C85.1393 35.721 85.2293 35.916 85.4033 36.06C85.5833 36.204 85.8083 36.276 86.0783 36.276C86.3483 36.276 86.5703 36.204 86.7443 36.06C86.9183 35.916 87.0083 35.721 87.0143 35.475H87.3563C87.3503 35.823 87.2303 36.096 86.9963 36.294C86.7623 36.486 86.4563 36.582 86.0783 36.582ZM90.1341 37.302H90.5841V39.444H93.7701V37.302H94.2201V42H93.7701V39.84H90.5841V42H90.1341V37.302ZM100.347 42.036C99.9029 42.036 99.5009 41.934 99.1409 41.73C98.7869 41.526 98.5079 41.244 98.3039 40.884C98.0999 40.518 97.9979 40.107 97.9979 39.651C97.9979 39.195 98.0999 38.787 98.3039 38.427C98.5079 38.061 98.7869 37.776 99.1409 37.572C99.5009 37.368 99.9029 37.266 100.347 37.266C100.791 37.266 101.19 37.368 101.544 37.572C101.904 37.776 102.186 38.061 102.39 38.427C102.594 38.787 102.696 39.195 102.696 39.651C102.696 40.107 102.594 40.518 102.39 40.884C102.186 41.244 101.904 41.526 101.544 41.73C101.19 41.934 100.791 42.036 100.347 42.036ZM100.347 41.631C100.707 41.631 101.028 41.547 101.31 41.379C101.598 41.211 101.823 40.977 101.985 40.677C102.153 40.377 102.237 40.035 102.237 39.651C102.237 39.267 102.153 38.925 101.985 38.625C101.823 38.325 101.598 38.091 101.31 37.923C101.028 37.755 100.707 37.671 100.347 37.671C99.9869 37.671 99.6629 37.755 99.3749 37.923C99.0929 38.091 98.8679 38.325 98.6999 38.625C98.5379 38.925 98.4569 39.267 98.4569 39.651C98.4569 40.035 98.5379 40.377 98.6999 40.677C98.8679 40.977 99.0929 41.211 99.3749 41.379C99.6629 41.547 99.9869 41.631 100.347 41.631ZM106.339 37.374C106.777 37.374 107.164 37.473 107.5 37.671C107.842 37.863 108.109 38.133 108.301 38.481C108.493 38.829 108.589 39.231 108.589 39.687C108.589 40.143 108.49 40.551 108.292 40.911C108.1 41.265 107.827 41.544 107.473 41.748C107.125 41.946 106.726 42.045 106.276 42.045C105.76 42.045 105.319 41.919 104.953 41.667C104.593 41.415 104.317 41.058 104.125 40.596C103.939 40.134 103.846 39.594 103.846 38.976C103.846 38.274 103.93 37.692 104.098 37.23C104.272 36.768 104.53 36.405 104.872 36.141C105.22 35.871 105.664 35.67 106.204 35.538L108.283 35.034L108.355 35.457L106.375 35.925C105.889 36.039 105.493 36.207 105.187 36.429C104.887 36.645 104.662 36.942 104.512 37.32C104.362 37.698 104.284 38.181 104.278 38.769C104.434 38.337 104.695 37.998 105.061 37.752C105.427 37.5 105.853 37.374 106.339 37.374ZM106.285 41.658C106.639 41.658 106.957 41.574 107.239 41.406C107.521 41.238 107.74 41.007 107.896 40.713C108.052 40.413 108.13 40.074 108.13 39.696C108.13 39.318 108.052 38.985 107.896 38.697C107.74 38.403 107.521 38.178 107.239 38.022C106.963 37.86 106.645 37.779 106.285 37.779C105.925 37.779 105.604 37.86 105.322 38.022C105.04 38.178 104.821 38.403 104.665 38.697C104.509 38.985 104.431 39.318 104.431 39.696C104.431 40.074 104.509 40.413 104.665 40.713C104.821 41.007 105.04 41.238 105.322 41.406C105.604 41.574 105.925 41.658 106.285 41.658ZM116.386 37.302V42H110.068V37.302H110.518V41.604H113.011V37.302H113.461V41.604H115.936V37.302H116.386ZM117.124 41.604V43.062H116.692V42H115.9V41.604H117.124ZM122.334 39.759H118.293C118.305 40.125 118.398 40.452 118.572 40.74C118.746 41.022 118.98 41.241 119.274 41.397C119.574 41.553 119.91 41.631 120.282 41.631C120.588 41.631 120.87 41.577 121.128 41.469C121.392 41.355 121.611 41.19 121.785 40.974L122.046 41.271C121.842 41.517 121.584 41.706 121.272 41.838C120.966 41.97 120.633 42.036 120.273 42.036C119.805 42.036 119.388 41.934 119.022 41.73C118.656 41.526 118.368 41.244 118.158 40.884C117.954 40.524 117.852 40.113 117.852 39.651C117.852 39.195 117.948 38.787 118.14 38.427C118.338 38.061 118.608 37.776 118.95 37.572C119.292 37.368 119.676 37.266 120.102 37.266C120.528 37.266 120.909 37.368 121.245 37.572C121.587 37.77 121.854 38.049 122.046 38.409C122.244 38.769 122.343 39.177 122.343 39.633L122.334 39.759ZM120.102 37.662C119.772 37.662 119.475 37.737 119.211 37.887C118.947 38.031 118.734 38.238 118.572 38.508C118.416 38.772 118.326 39.072 118.302 39.408H121.902C121.884 39.072 121.794 38.772 121.632 38.508C121.47 38.244 121.257 38.037 120.993 37.887C120.729 37.737 120.432 37.662 120.102 37.662ZM125.713 42.036C125.257 42.036 124.849 41.934 124.489 41.73C124.129 41.526 123.847 41.244 123.643 40.884C123.439 40.518 123.337 40.107 123.337 39.651C123.337 39.189 123.439 38.778 123.643 38.418C123.847 38.052 124.129 37.77 124.489 37.572C124.849 37.368 125.257 37.266 125.713 37.266C126.091 37.266 126.433 37.341 126.739 37.491C127.051 37.635 127.303 37.848 127.495 38.13L127.162 38.373C126.994 38.139 126.784 37.965 126.532 37.851C126.286 37.731 126.013 37.671 125.713 37.671C125.347 37.671 125.017 37.755 124.723 37.923C124.435 38.085 124.207 38.316 124.039 38.616C123.877 38.916 123.796 39.261 123.796 39.651C123.796 40.041 123.877 40.386 124.039 40.686C124.207 40.986 124.435 41.22 124.723 41.388C125.017 41.55 125.347 41.631 125.713 41.631C126.013 41.631 126.286 41.574 126.532 41.46C126.784 41.34 126.994 41.163 127.162 40.929L127.495 41.172C127.303 41.454 127.051 41.67 126.739 41.82C126.433 41.964 126.091 42.036 125.713 42.036ZM131.859 37.707H130.023V42H129.573V37.707H127.737V37.302H131.859V37.707ZM135.604 39.579C136.294 39.699 136.639 40.086 136.639 40.74C136.639 41.148 136.489 41.46 136.189 41.676C135.895 41.892 135.451 42 134.857 42H132.823V37.302H134.803C135.325 37.302 135.733 37.407 136.027 37.617C136.327 37.821 136.477 38.115 136.477 38.499C136.477 38.775 136.399 39.006 136.243 39.192C136.093 39.372 135.88 39.501 135.604 39.579ZM133.264 39.444H134.776C135.178 39.444 135.487 39.369 135.703 39.219C135.919 39.063 136.027 38.841 136.027 38.553C136.027 38.259 135.919 38.04 135.703 37.896C135.493 37.746 135.184 37.671 134.776 37.671H133.264V39.444ZM134.848 41.631C135.742 41.631 136.189 41.328 136.189 40.722C136.189 40.404 136.087 40.17 135.883 40.02C135.679 39.87 135.358 39.795 134.92 39.795H133.264V41.631H134.848ZM142.242 39.759H138.201C138.213 40.125 138.306 40.452 138.48 40.74C138.654 41.022 138.888 41.241 139.182 41.397C139.482 41.553 139.818 41.631 140.19 41.631C140.496 41.631 140.778 41.577 141.036 41.469C141.3 41.355 141.519 41.19 141.693 40.974L141.954 41.271C141.75 41.517 141.492 41.706 141.18 41.838C140.874 41.97 140.541 42.036 140.181 42.036C139.713 42.036 139.296 41.934 138.93 41.73C138.564 41.526 138.276 41.244 138.066 40.884C137.862 40.524 137.76 40.113 137.76 39.651C137.76 39.195 137.856 38.787 138.048 38.427C138.246 38.061 138.516 37.776 138.858 37.572C139.2 37.368 139.584 37.266 140.01 37.266C140.436 37.266 140.817 37.368 141.153 37.572C141.495 37.77 141.762 38.049 141.954 38.409C142.152 38.769 142.251 39.177 142.251 39.633L142.242 39.759ZM140.01 37.662C139.68 37.662 139.383 37.737 139.119 37.887C138.855 38.031 138.642 38.238 138.48 38.508C138.324 38.772 138.234 39.072 138.21 39.408H141.81C141.792 39.072 141.702 38.772 141.54 38.508C141.378 38.244 141.165 38.037 140.901 37.887C140.637 37.737 140.34 37.662 140.01 37.662ZM143.721 37.302H144.171V39.444H147.357V37.302H147.807V42H147.357V39.84H144.171V42H143.721V37.302ZM149.75 37.302H150.2V39.444H153.386V37.302H153.836V42H153.386V39.84H150.2V42H149.75V37.302ZM157.634 39.012C158.216 39.018 158.66 39.147 158.966 39.399C159.272 39.645 159.425 40.008 159.425 40.488C159.425 40.986 159.263 41.367 158.939 41.631C158.615 41.895 158.147 42.024 157.535 42.018L155.78 42V37.302H156.23V38.994L157.634 39.012ZM160.289 37.302H160.739V42H160.289V37.302ZM157.517 41.658C157.997 41.664 158.36 41.568 158.606 41.37C158.852 41.172 158.975 40.878 158.975 40.488C158.975 40.11 158.855 39.831 158.615 39.651C158.375 39.465 158.009 39.366 157.517 39.354L156.23 39.345V41.64L157.517 41.658ZM165.613 42L164.002 39.903L162.391 42H161.878L163.741 39.579L161.977 37.302H162.49L164.002 39.255L165.514 37.302H166.018L164.254 39.579L166.144 42H165.613ZM173.7 37.302V42H173.25V37.707H170.046V42H169.596V37.302H173.7ZM178.01 37.266C178.448 37.266 178.844 37.368 179.198 37.572C179.552 37.776 179.828 38.058 180.026 38.418C180.23 38.778 180.332 39.189 180.332 39.651C180.332 40.113 180.23 40.527 180.026 40.893C179.828 41.253 179.552 41.535 179.198 41.739C178.844 41.937 178.448 42.036 178.01 42.036C177.596 42.036 177.221 41.94 176.885 41.748C176.549 41.55 176.288 41.277 176.102 40.929V43.746H175.652V37.302H176.084V38.409C176.27 38.049 176.531 37.77 176.867 37.572C177.209 37.368 177.59 37.266 178.01 37.266ZM177.983 41.631C178.343 41.631 178.667 41.547 178.955 41.379C179.243 41.211 179.468 40.977 179.63 40.677C179.798 40.377 179.882 40.035 179.882 39.651C179.882 39.267 179.798 38.925 179.63 38.625C179.468 38.325 179.243 38.091 178.955 37.923C178.667 37.755 178.343 37.671 177.983 37.671C177.623 37.671 177.299 37.755 177.011 37.923C176.729 38.091 176.504 38.325 176.336 38.625C176.174 38.925 176.093 39.267 176.093 39.651C176.093 40.035 176.174 40.377 176.336 40.677C176.504 40.977 176.729 41.211 177.011 41.379C177.299 41.547 177.623 41.631 177.983 41.631ZM183.667 42.036C183.223 42.036 182.821 41.934 182.461 41.73C182.107 41.526 181.828 41.244 181.624 40.884C181.42 40.518 181.318 40.107 181.318 39.651C181.318 39.195 181.42 38.787 181.624 38.427C181.828 38.061 182.107 37.776 182.461 37.572C182.821 37.368 183.223 37.266 183.667 37.266C184.111 37.266 184.51 37.368 184.864 37.572C185.224 37.776 185.506 38.061 185.71 38.427C185.914 38.787 186.016 39.195 186.016 39.651C186.016 40.107 185.914 40.518 185.71 40.884C185.506 41.244 185.224 41.526 184.864 41.73C184.51 41.934 184.111 42.036 183.667 42.036ZM183.667 41.631C184.027 41.631 184.348 41.547 184.63 41.379C184.918 41.211 185.143 40.977 185.305 40.677C185.473 40.377 185.557 40.035 185.557 39.651C185.557 39.267 185.473 38.925 185.305 38.625C185.143 38.325 184.918 38.091 184.63 37.923C184.348 37.755 184.027 37.671 183.667 37.671C183.307 37.671 182.983 37.755 182.695 37.923C182.413 38.091 182.188 38.325 182.02 38.625C181.858 38.925 181.777 39.267 181.777 39.651C181.777 40.035 181.858 40.377 182.02 40.677C182.188 40.977 182.413 41.211 182.695 41.379C182.983 41.547 183.307 41.631 183.667 41.631ZM189.381 42.036C188.925 42.036 188.517 41.934 188.157 41.73C187.797 41.526 187.515 41.244 187.311 40.884C187.107 40.518 187.005 40.107 187.005 39.651C187.005 39.189 187.107 38.778 187.311 38.418C187.515 38.052 187.797 37.77 188.157 37.572C188.517 37.368 188.925 37.266 189.381 37.266C189.759 37.266 190.101 37.341 190.407 37.491C190.719 37.635 190.971 37.848 191.163 38.13L190.83 38.373C190.662 38.139 190.452 37.965 190.2 37.851C189.954 37.731 189.681 37.671 189.381 37.671C189.015 37.671 188.685 37.755 188.391 37.923C188.103 38.085 187.875 38.316 187.707 38.616C187.545 38.916 187.464 39.261 187.464 39.651C187.464 40.041 187.545 40.386 187.707 40.686C187.875 40.986 188.103 41.22 188.391 41.388C188.685 41.55 189.015 41.631 189.381 41.631C189.681 41.631 189.954 41.574 190.2 41.46C190.452 41.34 190.662 41.163 190.83 40.929L191.163 41.172C190.971 41.454 190.719 41.67 190.407 41.82C190.101 41.964 189.759 42.036 189.381 42.036ZM195.527 37.707H193.691V42H193.241V37.707H191.405V37.302H195.527V37.707ZM198.858 37.266C199.296 37.266 199.692 37.368 200.046 37.572C200.4 37.776 200.676 38.058 200.874 38.418C201.078 38.778 201.18 39.189 201.18 39.651C201.18 40.113 201.078 40.527 200.874 40.893C200.676 41.253 200.4 41.535 200.046 41.739C199.692 41.937 199.296 42.036 198.858 42.036C198.444 42.036 198.069 41.94 197.733 41.748C197.397 41.55 197.136 41.277 196.95 40.929V43.746H196.5V37.302H196.932V38.409C197.118 38.049 197.379 37.77 197.715 37.572C198.057 37.368 198.438 37.266 198.858 37.266ZM198.831 41.631C199.191 41.631 199.515 41.547 199.803 41.379C200.091 41.211 200.316 40.977 200.478 40.677C200.646 40.377 200.73 40.035 200.73 39.651C200.73 39.267 200.646 38.925 200.478 38.625C200.316 38.325 200.091 38.091 199.803 37.923C199.515 37.755 199.191 37.671 198.831 37.671C198.471 37.671 198.147 37.755 197.859 37.923C197.577 38.091 197.352 38.325 197.184 38.625C197.022 38.925 196.941 39.267 196.941 39.651C196.941 40.035 197.022 40.377 197.184 40.677C197.352 40.977 197.577 41.211 197.859 41.379C198.147 41.547 198.471 41.631 198.831 41.631ZM204.182 37.266C204.764 37.266 205.211 37.416 205.523 37.716C205.835 38.01 205.991 38.445 205.991 39.021V42H205.559V41.163C205.409 41.439 205.19 41.655 204.902 41.811C204.614 41.961 204.269 42.036 203.867 42.036C203.345 42.036 202.931 41.913 202.625 41.667C202.325 41.421 202.175 41.097 202.175 40.695C202.175 40.305 202.313 39.99 202.589 39.75C202.871 39.504 203.318 39.381 203.93 39.381H205.541V39.003C205.541 38.565 205.421 38.232 205.181 38.004C204.947 37.776 204.602 37.662 204.146 37.662C203.834 37.662 203.534 37.716 203.246 37.824C202.964 37.932 202.724 38.076 202.526 38.256L202.301 37.932C202.535 37.722 202.817 37.56 203.147 37.446C203.477 37.326 203.822 37.266 204.182 37.266ZM203.93 41.667C204.32 41.667 204.65 41.577 204.92 41.397C205.196 41.217 205.403 40.956 205.541 40.614V39.732H203.939C203.477 39.732 203.141 39.816 202.931 39.984C202.727 40.152 202.625 40.383 202.625 40.677C202.625 40.983 202.739 41.226 202.967 41.406C203.195 41.58 203.516 41.667 203.93 41.667ZM207.82 37.302H208.27V39.444H211.456V37.302H211.906V42H211.456V39.84H208.27V42H207.82V37.302ZM215.748 42.036C215.292 42.036 214.884 41.934 214.524 41.73C214.164 41.526 213.882 41.244 213.678 40.884C213.474 40.518 213.372 40.107 213.372 39.651C213.372 39.189 213.474 38.778 213.678 38.418C213.882 38.052 214.164 37.77 214.524 37.572C214.884 37.368 215.292 37.266 215.748 37.266C216.126 37.266 216.468 37.341 216.774 37.491C217.086 37.635 217.338 37.848 217.53 38.13L217.197 38.373C217.029 38.139 216.819 37.965 216.567 37.851C216.321 37.731 216.048 37.671 215.748 37.671C215.382 37.671 215.052 37.755 214.758 37.923C214.47 38.085 214.242 38.316 214.074 38.616C213.912 38.916 213.831 39.261 213.831 39.651C213.831 40.041 213.912 40.386 214.074 40.686C214.242 40.986 214.47 41.22 214.758 41.388C215.052 41.55 215.382 41.631 215.748 41.631C216.048 41.631 216.321 41.574 216.567 41.46C216.819 41.34 217.029 41.163 217.197 40.929L217.53 41.172C217.338 41.454 217.086 41.67 216.774 41.82C216.468 41.964 216.126 42.036 215.748 42.036ZM221.894 37.707H220.058V42H219.608V37.707H217.772V37.302H221.894V37.707ZM225.639 39.579C226.329 39.699 226.674 40.086 226.674 40.74C226.674 41.148 226.524 41.46 226.224 41.676C225.93 41.892 225.486 42 224.892 42H222.858V37.302H224.838C225.36 37.302 225.768 37.407 226.062 37.617C226.362 37.821 226.512 38.115 226.512 38.499C226.512 38.775 226.434 39.006 226.278 39.192C226.128 39.372 225.915 39.501 225.639 39.579ZM223.299 39.444H224.811C225.213 39.444 225.522 39.369 225.738 39.219C225.954 39.063 226.062 38.841 226.062 38.553C226.062 38.259 225.954 38.04 225.738 37.896C225.528 37.746 225.219 37.671 224.811 37.671H223.299V39.444ZM224.883 41.631C225.777 41.631 226.224 41.328 226.224 40.722C226.224 40.404 226.122 40.17 225.918 40.02C225.714 39.87 225.393 39.795 224.955 39.795H223.299V41.631H224.883Z" fill="black"/>
<path d="M42 27.483V46.5C42 46.7666 41.7921 46.9828 41.5358 46.9828H16.9642C16.7079 46.9828 16.5 46.7666 16.5 46.5V41.4878H20.5714C21.0843 41.4878 21.5 41.0554 21.5 40.522V37H25.5714C26.0843 37 26.5 36.5676 26.5 36.0342V31.8292L30.5714 31.8292C31.0843 31.8292 31.5 31.3968 31.5 30.8634V27L41.5358 27C41.7921 27 42 27.2162 42 27.483Z" fill="#F5D581"/>
<line x1="20.5185" y1="0.870361" x2="20.5185" y2="6.09258" stroke="#F5D581"/>
<path d="M17.5657 6.09259H24.2121L26.1111 12.1852H15.6667L17.5657 6.09259Z" stroke="#F5D581" stroke-linejoin="round"/>
<path d="M4.5 41.5H9.5V44.5001C9.5 45.0523 9.05231 45.5 8.50011 45.5H5.49989C4.94769 45.5 4.5 45.0523 4.5 44.5001V41.5Z" stroke="#F5D581"/>
<line x1="36.5" y1="28.7222" x2="36.5" y2="19.1482" stroke="#F5D581"/>
<path d="M32 27.5L32 19.5" stroke="#F5D581"/>
<path d="M27 33.9445L27 20" stroke="#F5D581"/>
<path d="M22 38.2963L22 24.5" stroke="#F5D581"/>
<path d="M17 42.2963L17 29" stroke="#F5D581"/>
<path d="M3.49989 41H10.5001C10.7762 41 11 41.1119 11 41.2501V41.7501C11 41.8881 10.7762 42 10.5001 42H3.49989C3.22385 42 3 41.8881 3 41.7501V41.2501C3 41.1119 3.22385 41 3.49989 41Z" fill="#F5D581"/>
<path d="M5.6851 40.0686C5.75621 40.1488 5.81991 40.2334 5.87579 40.3215L5.90078 40.3644C6.02925 40.585 6.12744 40.817 6.19435 41.0553C5.7883 40.8829 5.42418 40.6403 5.12366 40.3415C4.8816 40.0376 4.70734 39.6998 4.60553 39.3461C5.01561 39.5201 5.3829 39.7658 5.6851 40.0686Z" stroke="#F5D581"/>
<path d="M6.43003 39.3645C6.49648 38.8729 6.6526 38.4054 6.88508 37.9876C7.04342 38.4504 7.11672 38.9464 7.09687 39.447C7.09004 39.5234 7.07926 39.5993 7.06458 39.6741C6.9189 39.9769 6.80605 40.2951 6.72734 40.6225C6.65475 40.3205 6.55309 40.0264 6.42341 39.7449C6.41731 39.618 6.4195 39.4909 6.43003 39.3645Z" stroke="#F5D581"/>
<path d="M7.87322 40.0996C8.28611 39.7547 8.8027 39.4793 9.38544 39.2974C9.26743 39.6516 9.0584 39.9954 8.75796 40.3092C8.34669 40.6505 7.83356 40.9232 7.25529 41.1038C7.337 40.8529 7.46197 40.6066 7.63052 40.3712L7.65202 40.3411C7.71746 40.258 7.79124 40.1772 7.87322 40.0996Z" stroke="#F5D581"/>
<path d="M12 34.5C12 34.7761 12.2239 35 12.5 35C12.7761 35 13 34.7761 13 34.5H12ZM13.4938 32.1061L13.8282 32.4779L13.4938 32.1061ZM26.8463 20.0963L27.1807 20.4681L26.8463 20.0963ZM41.5 19.0833H28.1838V20.0833H41.5V19.0833ZM26.5119 19.7246L13.1594 31.7344L13.8282 32.4779L27.1807 20.4681L26.5119 19.7246ZM12 34.3366V34.5H13V34.3366H12ZM13.1594 31.7344C12.4214 32.3982 12 33.3441 12 34.3366H13C13 33.6277 13.301 32.952 13.8282 32.4779L13.1594 31.7344ZM28.1838 19.0833C27.5664 19.0833 26.9709 19.3118 26.5119 19.7246L27.1807 20.4681C27.4561 20.2204 27.8134 20.0833 28.1838 20.0833V19.0833Z" fill="#F5D581"/>
<path d="M0.5 21C0.5 9.67816 9.67816 0.5 21 0.5C32.3218 0.5 41.5 9.67816 41.5 21V46.5H0.5V21Z" stroke="#F5D581"/>
</svg>
